<?xml version="1.0" encoding="utf-8"?>
<svg xmlns="http://www.w3.org/2000/svg" x="0px" y="0px"
	 viewBox="0 0 300 292" xml:space="preserve">
<style type="text/css">
	.st0{fill-rule:evenodd;clip-rule:evenodd;fill:#D3D3D3;}
</style>
<path class="st0" d="M149.7,30C84,30,30.8,83.2,30.8,148.9c0,52.5,34.1,97.1,81.4,112.8c6,1.1,8.1-2.5,8.1-5.7
	c0-2.9-0.1-10.3-0.2-20.3C87,243,80,219.9,80,219.9c-5.4-13.7-13.2-17.4-13.2-17.4c-10.8-7.4,0.8-7.2,0.8-7.2
	c11.9,0.9,18.2,12.2,18.2,12.2c10.6,18.2,27.8,13,34.6,9.9c1.1-7.7,4.1-13,7.5-15.9c-26.4-3-54.2-13.2-54.2-58.8
	c0-13,4.6-23.6,12.2-31.9c-1.2-3-5.3-15.1,1.2-31.5c0,0,10-3.2,32.7,12.2c9.5-2.6,19.6-4,29.8-4c10.1,0.1,20.3,1.4,29.8,4
	c22.7-15.4,32.7-12.2,32.7-12.2c6.5,16.4,2.4,28.4,1.2,31.5c7.6,8.3,12.2,18.9,12.2,31.9c0,45.7-27.8,55.8-54.3,58.7
	c4.3,3.7,8.1,11,8.1,22c0,15.9-0.2,28.8-0.2,32.7c0,3.2,2.1,6.9,8.2,5.7c47.2-15.7,81.3-60.3,81.3-112.8
	C268.7,83.2,215.4,30,149.7,30z"/>
</svg>
