<?xml version="1.0" encoding="utf-8"?>
<svg xmlns="http://www.w3.org/2000/svg" x="0px" y="0px"
	 viewBox="0 0 112.2 112.2" xml:space="preserve">
<style type="text/css">
	.st0{fill:#D3D3D3;}
	.st1{fill:#FFFFFF;}
</style>
<g>
	<path class="st0" d="M99.7,56.1c0,24.1-19.5,43.6-43.6,43.6c-24.1,0-43.6-19.5-43.6-43.6C12.5,32,32,12.5,56.1,12.5
		C80.2,12.5,99.7,32,99.7,56.1z"/>
	<g id="lastfm">
		<g>
			<path class="st1" d="M75.1,53c-4.8-1.4-6.5-2.2-6.5-3.8c0-2.7,3.8-3.7,4.3-3.7c2.4-0.4,5.5,0.9,6.5,3.9l6.6-2
				c-2.1-6.5-8.2-9.4-14.1-8.5c-6.1,0.9-9.9,5.3-9.9,10.4c0,6.8,6.4,8.8,11.2,10.2c5.1,1.5,6.5,2,6.5,3.9c0,1.6-0.9,3-3.4,3.7
				c-4.9,1.3-11.3-0.5-13.1-3.5c-1-1.8-2.1-4-3.1-6.6C57,49.2,53,38.7,41.5,38.7c-6,0-17,2.9-17,19.3c0,6.8,5.8,15.2,16.8,15.2
				c9.2,0,10.8-3.4,11.2-4l-3-5.9c-0.1,0.1-2.9,3.8-8.2,3.8c-8.6,0-9.9-9.2-9.9-9.3c0-8.5,3.6-12.6,10.1-12.6c6.3,0,8.8,5.5,12,13.8
				c1.1,2.9,2.3,5.4,3.6,7.7c2.8,4.8,9,6.3,15.1,6.3c1.9,0,4,0.1,5.7-0.3c5.5-1.5,8.5-4.8,8.5-9.5C86.4,56.2,80,54.5,75.1,53z"/>
		</g>
	</g>
</g>
</svg>
