<?xml version="1.0" encoding="utf-8"?>
<svg xmlns="http://www.w3.org/2000/svg" x="0px" y="0px"
	 viewBox="0 0 233 233" xml:space="preserve">
<style type="text/css">
	.st0{fill:#D3D3D3;}
	.st1{fill:#FFFFFF;}
</style>
<path class="st0" d="M28.9,142.8C40.3,181,76,208.6,118,208c50-0.8,90.4-42.2,90-92.2C207.6,65.6,166.8,25,116.5,25
	C68,25,28.3,62.7,25.2,110.4C31.1,120.4,33.4,126.5,28.9,142.8L28.9,142.8z"/>
<path class="st1" d="M111.8,93.6c0,0.2,0,0.3,0,0.5l-22.4,32.5c-3.6-0.2-7.3,0.5-10.7,1.9c-1.5,0.6-2.9,1.4-4.3,2.3l-49.2-20.2
	c0,0-1.1,18.7,3.6,32.7l34.8,14.3c1.7,7.8,7.1,14.6,15,17.9c12.9,5.4,27.8-0.8,33.2-13.7c1.4-3.4,2-6.9,2-10.5l32-22.9
	c0.3,0,0.5,0,0.8,0c19.2,0,34.8-15.6,34.8-34.8c0-19.2-15.6-34.8-34.8-34.8C127.4,58.8,111.8,74.4,111.8,93.6z M106.4,159.5
	c-4.2,10-15.6,14.7-25.6,10.6c-4.6-1.9-8.1-5.4-10.1-9.6l11.3,4.7c7.4,3.1,15.8-0.4,18.8-7.8c3.1-7.4-0.4-15.8-7.8-18.9l-11.7-4.8
	c4.5-1.7,9.6-1.8,14.4,0.2c4.8,2,8.6,5.8,10.6,10.6C108.5,149.3,108.4,154.7,106.4,159.5 M146.6,116.8c-12.8,0-23.2-10.4-23.2-23.2
	c0-12.8,10.4-23.2,23.2-23.2c12.8,0,23.2,10.4,23.2,23.2C169.7,106.4,159.3,116.8,146.6,116.8 M129.2,93.5c0-9.6,7.8-17.4,17.4-17.4
	c9.6,0,17.4,7.8,17.4,17.4c0,9.6-7.8,17.4-17.4,17.4C137,111,129.2,103.2,129.2,93.5z"/>
</svg>
