<?xml version="1.0" encoding="utf-8"?>
<svg xmlns="http://www.w3.org/2000/svg" x="0px" y="0px"
	 viewBox="0 0 192 192" xml:space="preserve">
<style type="text/css">
	.st0{fill:#D3D3D3;}
	.st1{fill:#FFFFFF;}
</style>
<circle class="st0" cx="96" cy="96" r="79.2"/>
<path class="st1" d="M140.4,71.8c0.7-2.2,0-3.8-3.1-3.8h-10.4c-2.6,0-3.9,1.4-4.5,2.9c0,0-5.3,12.9-12.7,21.2
	c-2.4,2.4-3.5,3.2-4.8,3.2c-0.7,0-1.6-0.8-1.6-3V71.8c0-2.6-0.8-3.8-3-3.8H84c-1.6,0-2.6,1.2-2.6,2.4c0,2.5,3.7,3.1,4.1,10.1v15.3
	c0,3.3-0.6,4-1.9,4C80,99.7,71.5,86.8,66.4,72c-1-2.9-2-4-4.6-4H51.4c-3,0-3.6,1.4-3.6,2.9c0,2.7,3.5,16.4,16.4,34.4
	c8.6,12.3,20.6,19,31.6,19c6.6,0,7.4-1.5,7.4-4v-9.3c0-3,0.6-3.6,2.7-3.6c1.5,0,4.2,0.8,10.3,6.7c7,7,8.2,10.2,12.1,10.2h10.4
	c3,0,4.4-1.5,3.6-4.4c-0.9-2.9-4.3-7.1-8.7-12.2c-2.4-2.9-6-5.9-7.1-7.5c-1.5-2-1.1-2.9,0-4.6C126.5,95.6,139.1,77.8,140.4,71.8
	L140.4,71.8z"/>
</svg>
